<svg version="1.2" xmlns="http://www.w3.org/2000/svg" viewBox="0 0 259 46" width="259" height="46">
	<title>brand-logo-pvt-ltd</title>
	<style>
		.s0 { fill: #00ac8d } 
		.s1 { fill: #002a4d } 
	</style>
	<path class="s0" d="m205.8 4.8c-0.2 0.1-0.2 0.4-0.1 0.6 0.8 0.7 1.6 1.5 2.3 2.3q0.3 0.5 0.6 0.9 0 0.1 0.1 0.1c0 0.2-0.2 0.4-0.4 0.3q0 0-0.1 0-0.1-0.1-0.1-0.2-7.4-7.3-17.7-6.5c-5.4 0.4-10 2.6-13.8 6.5 0 0-0.2 0.2-0.2 0.2 0 0 0 0 0 0-0.2 0.1-0.4-0.1-0.4-0.3q0-0.1 0.1-0.1 1.6-2.3 3.8-4c7-5.4 16.4-5.7 23.8-0.8 0.4 0.3 0.7 0.3 1.2 0 2.5-1.7 5.2-3 8.2-3.6 1-0.2 2.1-0.3 3.1-0.1 1.1 0.3 1.6 0.9 1.7 2.1 0 1.2-0.4 2.3-0.9 3.3-0.7 1.3-1.5 2.4-2.5 3.4-0.2 0.2-0.3 0.4-0.6 0.3-0.1-0.2 0-0.5 0.1-0.6 0.6-1.2 1.1-2.4 1.2-3.7 0.1-1.4-0.6-2.1-2-2.2-1.1 0-2.2 0.2-3.3 0.5q-2.1 0.6-4 1.6z"/>
	<path class="s0" d="m188.5 43.8q-2.5-0.4-4.7-1.5c-0.1 0-0.1-0.2 0-0.2q0.4-0.5 0.9-0.9c0.2-0.1 0.4 0 0.5 0q3.2 1.1 6.5 1.2c1.8 0 3.2-0.2 4-0.3q0.8-0.2 1.4-0.4c0.2 0 0.2-0.3 0-0.3-1-0.1-2.2-0.3-3.1-0.4-0.2 0-0.3-0.1-0.3-0.3 0.1-0.1 0.2-0.3 0.3-0.3 1.3 0 3 0.1 4.1 0.1q0.6 0 1.5-0.1 0.4 0 0.7 0 0.1 0 0.1-0.1c0-0.1 0-0.2-0.1-0.2q-0.4-0.1-0.7-0.2c-1.3-0.3-2.7-0.5-3.2-0.6-0.2 0-0.3-0.1-0.3-0.3q0 0 0 0c0-0.1 0.2-0.3 0.3-0.3l5.6 0.1c0 0 0.7 0 1-0.1q0.1 0 0.1-0.1c0-0.1 0-0.2-0.1-0.2q-0.4-0.1-0.7-0.2c-1.6-0.3-2.8-0.6-3-0.7-0.1 0-0.2 0-0.2-0.1q-0.1 0-0.1-0.1 0-0.3 0.3-0.3 0.1 0 0.2 0c0.1 0 3.1 0 8.2 0 0.2 0 0.2 0.2 0.1 0.3-1 1.1-2.2 2.1-3.3 3-4.9 3.5-10.8 4.6-16 3.5z"/>
	<path class="s0" d="m170.2 45.8c-0.4-0.1-0.8-0.1-1.1-0.1-1.5-0.2-2.2-1.4-1.9-3 0.4-2 1.4-3.6 2.7-5.1q0.3-0.4 0.7-0.8c0.1-0.1 0.2-0.3 0.4-0.1 0.3 0.1 0.1 0.3 0 0.4-0.5 1-0.9 2.1-1.1 3.2q0 0.2-0.1 0.3c-0.1 1.6 0.5 2.4 2.2 2.4 1.4 0.1 2.8-0.3 4.2-0.8q1.3-0.4 2.6-1.1c1.2-0.6 1.8-0.7 1.1-1.1-1.3-1-3.5-3.5-3.8-4 0-0.1-0.2-0.3-0.1-0.5 0 0 0.1 0 0.2 0 0.1 0 0.2 0.1 0.3 0.2q2.1 2.1 4.6 3.6c0.4 0.2 0.6 0.2 1 0 0.9-0.7 1.9-1.4 2.8-2.1q0.2-0.2 0.4-0.3c0.2-0.1 0.5 0.1 0.4 0.4q0 0 0 0c-5.1 6.4-12.9 8-12.9 8q-1.2 0.4-2.6 0.5z"/>
	<path class="s0" d="m184.3 8.7c-0.9 0.4-1.8-0.3-1.7-1.2 0-0.7 0.6-1.2 1.3-1.2 0.9 0 1.6 1.2 0.8 2.1q-0.1 0.2-0.4 0.3z"/>
	<path class="s0" d="m188 6.8c-0.6 0-1-0.5-1-1 0-0.6 0.4-1.1 1-1.1 0.6 0 1.1 0.5 1.1 1 0 0.6-0.5 1.1-1.1 1.1z"/>
	<path class="s0" d="m193 5c0 0.3-0.3 0.7-0.7 0.7-0.4 0-0.7-0.4-0.7-0.7 0-0.4 0.3-0.7 0.7-0.7 0.4 0 0.7 0.3 0.7 0.7z"/>
	<path class="s1" d="m10.6 33.4q-3.3 0-6.1-1.4-2.8-1.5-4.2-3.8-0.5-0.8-0.2-1.3 0.2-0.5 1.2-0.8l0.4-0.2q0.3-0.1 0.6-0.2 0.3 0 0.5 0.2 0.3 0.1 0.6 0.3 0.3 0.3 0.7 0.7 2.6 2.9 6.5 2.9 2.6 0 4.1-1.1 1.4-1 1.4-2.9 0-0.9-0.5-1.7-0.5-0.7-1.4-1.1-0.9-0.4-2-0.7-1.2-0.4-2.4-0.7-1.3-0.2-2.5-0.6-1.3-0.3-2.4-0.9-1.2-0.6-2-1.3-0.9-0.8-1.4-2-0.6-1.3-0.6-2.9 0-3.2 2.5-5.3 2.5-2.1 6.4-2.1 2.9 0 5.5 1.3 2.6 1.3 3.8 3.3 0.9 1.6-0.9 2.1l-0.6 0.2q-0.6 0.2-1 0-0.5-0.2-1.3-1-1.2-1.1-2.4-1.6-1.3-0.5-2.9-0.5-2.3 0-3.7 0.9-1.3 1-1.3 2.7 0 1 0.5 1.8 0.5 0.7 1.4 1.2 0.9 0.4 2 0.7 1.2 0.3 2.4 0.6 1.3 0.3 2.6 0.6 1.2 0.3 2.4 0.8 1.1 0.6 2 1.3 0.9 0.8 1.4 2.1 0.5 1.2 0.5 2.8 0 3.4-2.6 5.5-2.7 2.1-7 2.1z"/>
	<path class="s1" d="m25.4 33.1q-0.8 0-1.3-0.5-0.5-0.5-0.5-1.3v-23.8q0-0.8 0.5-1.3 0.5-0.5 1.3-0.5h0.5q0.8 0 1.3 0.5 0.5 0.5 0.5 1.3v8.7q0.7-1.7 2.4-2.9 1.7-1.2 4.3-1.2 4.2 0 6.3 2.3 2 2.4 2 7.5v9.4q0 0.8-0.4 1.3-0.5 0.5-1.4 0.5h-0.4q-0.9 0-1.3-0.5-0.5-0.5-0.5-1.3v-9.1q0-3.4-1.3-5-1.4-1.6-4.3-1.6-2.7 0-4.1 1.7-1.3 1.8-1.3 5.4v8.6q0 0.8-0.5 1.3-0.5 0.5-1.3 0.5z"/>
	<path class="s1" d="m63.9 12.4q0.9 0 1.4 0.5 0.4 0.5 0.4 1.3v17.1q0 0.8-0.4 1.3-0.5 0.5-1.4 0.5h-0.4q-0.9 0-1.4-0.5-0.4-0.5-0.4-1.3v-2.1q-0.8 1.9-2.5 3-1.8 1.2-4.3 1.2-4.2 0-6.2-2.4-2.1-2.5-2.1-7.4v-9.4q0-0.8 0.5-1.3 0.5-0.5 1.3-0.5h0.5q0.8 0 1.3 0.5 0.5 0.5 0.5 1.3v9.1q0 3.4 1.3 5 1.3 1.6 4.2 1.6 2.8 0 4.2-1.8 1.3-1.8 1.3-5.3v-8.6q0-0.8 0.5-1.3 0.4-0.5 1.3-0.5z"/>
	<path class="s1" d="m81.4 12.1q4.3 0 6.3 2.4 2 2.4 2 7.4v9.4q0 0.8-0.4 1.3-0.5 0.5-1.4 0.5h-0.4q-0.9 0-1.3-0.5-0.5-0.5-0.5-1.3v-9.1q0-3.4-1.4-5-1.3-1.6-4.1-1.6-2.9 0-4.2 1.8-1.3 1.8-1.3 5.3v8.6q0 0.8-0.5 1.3-0.4 0.5-1.3 0.5h-0.5q-0.8 0-1.3-0.5-0.5-0.5-0.5-1.3v-17.1q0-0.8 0.5-1.3 0.5-0.5 1.3-0.5h0.5q0.9 0 1.3 0.5 0.5 0.5 0.5 1.3v2.1q0.7-1.9 2.5-3.1 1.7-1.1 4.2-1.1z"/>
	<path class="s1" d="m99.1 39.7q-1 0-1.4-0.6-0.3-0.6 0.1-1.5l2.1-4.7-8-18.4q-0.5-0.9-0.1-1.5 0.4-0.6 1.4-0.6h0.7q1.5 0 2.1 1.4l6 14.7 6.1-14.7q0.6-1.4 2-1.4h0.7q1 0 1.4 0.6 0.4 0.6 0 1.5l-10.3 23.9q-0.6 1.3-2.2 1.3z"/>
	<path class="s1" d="m123.3 33.5q-2 0-3.7-0.7-1.7-0.7-3-2-1.3-1.3-2.1-3.4-0.7-2.1-0.7-4.7 0-2.6 0.7-4.6 0.8-2.1 2.1-3.4 1.3-1.3 3-2 1.7-0.7 3.6-0.7 2.5 0 4.5 1.2 2 1.2 2.9 3.3v-2.3q0-0.8 0.4-1.3 0.5-0.5 1.3-0.5h0.5q0.9 0 1.3 0.5 0.5 0.5 0.5 1.3v17q0 0.9-0.5 1.4-0.4 0.4-1.3 0.4h-0.5q-0.8 0-1.3-0.4-0.4-0.5-0.4-1.4v-2.1q-0.9 2.1-2.9 3.3-2 1.1-4.4 1.1zm1-3.4q2.8 0 4.6-2 1.8-2 1.8-5.4 0-3.3-1.8-5.3-1.8-1.9-4.7-1.9-2.9 0-4.6 1.9-1.8 2-1.8 5.3 0 3.4 1.8 5.4 1.8 2 4.7 2z"/>
	<path class="s1" d="m147.8 33.1q-1.6 0-2.2-1.4l-7.5-17.2q-0.4-0.9 0-1.5 0.4-0.6 1.3-0.6h0.7q1.5 0 2.1 1.4l6.1 14.9 6-14.9q0.6-1.4 2.1-1.4h0.7q1 0 1.4 0.6 0.3 0.6-0.1 1.5l-7.5 17.2q-0.6 1.4-2.1 1.4z"/>
	<path class="s1" d="m178.8 30.8q0.8 0.9 0.5 1.6-0.2 0.7-1.4 0.7h-1q-1.3 0-2.2-1l-8.6-9.2v8.4q0 0.8-0.5 1.3-0.5 0.5-1.4 0.5h-0.4q-0.9 0-1.3-0.5-0.5-0.5-0.5-1.3v-23.8q0-0.8 0.5-1.3 0.4-0.5 1.3-0.5h0.4q0.9 0 1.4 0.5 0.5 0.5 0.5 1.3v14.4l8.2-8.5q0.9-1 2.2-1h0.9q1.2 0 1.5 0.7 0.2 0.7-0.6 1.6l-7.9 7.6z"/>
	<path class="s1" d="m201.3 12.9q-0.5-0.5-1.3-0.5h-0.5q-0.9 0-1.3 0.5-0.5 0.5-0.5 1.3v2.3q-0.9-2.1-2.8-3.3-2-1.2-4.5-1.2-2 0-3.6 0.7-1.7 0.7-3 2-1.4 1.3-2.1 3.4-0.7 2-0.7 4.6 0 2.6 0.7 4.7 0.8 2.1 2.1 3.4 1.3 1.3 3 2 0.3 0.2 0.7 0.3c0.3-0.3 1.3-1.5 2.3-3.1q0 0 0.1-0.1 0.5-0.8 0.9-1.7c0 0-0.2 0.7-0.6 1.8q0 0-0.1 0.1c-0.3 1-0.8 2.2-1.5 3.3q0.9 0.1 1.8 0.1 2.5 0 4.5-1.1 2-1.2 2.8-3.3v2.1q0 0.9 0.5 1.4 0.4 0.4 1.3 0.4h0.5q0.8 0 1.3-0.4 0.4-0.5 0.4-1.4v-17q0-0.8-0.4-1.3zm-9 13.6q-1.1-0.4-2.3-0.5-2-0.4-4 0c1.2-1.1 2.6-1.9 4.1-2.5q0.1-0.7 0.3-1.5c0.5-1.4 1.3-2.7 2.4-3.7q0.1-0.1 0.2-0.2c0.6 1.5 0.9 3.1 0.7 4.7q-0.1 0.9-0.4 1.7c1 1.1 1.7 2.4 2.2 3.8q-1.5-1.1-3.2-1.8z"/>
	<path class="s1" d="m215.1 33.4q-2.7 0-5.1-1-2.5-0.9-3.8-2.6-0.5-0.7-0.3-1.3 0.3-0.7 1.2-0.9l0.3-0.1q0.6-0.2 1.1-0.1 0.6 0.1 1.3 0.8 2 1.8 5.3 1.8 2.2 0 3.5-0.8 1.3-0.8 1.3-2.1 0-0.8-0.5-1.3-0.5-0.6-1.2-0.9-0.8-0.3-1.8-0.5-1-0.2-2.1-0.4-1.1-0.2-2.2-0.5-1.1-0.2-2.1-0.6-1-0.4-1.8-1-0.8-0.6-1.2-1.6-0.5-1-0.5-2.3 0-1.8 1.1-3.2 1.2-1.4 3.1-2.1 1.8-0.6 4.1-0.6 2.1 0 4.3 0.8 2.2 0.8 3.5 2.1 0.6 0.7 0.4 1.3-0.2 0.7-1 1l-0.4 0.1q-0.4 0.1-0.6 0.1-0.3 0-0.7-0.1-0.3-0.2-0.5-0.3-0.1-0.1-0.6-0.4-2.3-1.3-4.4-1.3-2 0-3.2 0.6-1.1 0.7-1.1 1.9 0 0.7 0.4 1.2 0.5 0.5 1.3 0.8 0.7 0.3 1.7 0.5 1.1 0.2 2.2 0.4 1.1 0.2 2.2 0.4 1.1 0.3 2.1 0.7 1 0.5 1.8 1.1 0.8 0.6 1.3 1.6 0.4 1 0.4 2.4 0 2.8-2.5 4.6-2.4 1.8-6.3 1.8z"/>
	<path class="s1" d="m229.2 33.1q-0.9 0-1.4-0.5-0.4-0.5-0.4-1.3v-23.8q0-0.8 0.4-1.3 0.5-0.5 1.4-0.5h0.4q0.9 0 1.4 0.5 0.4 0.5 0.4 1.3v8.7q0.7-1.7 2.5-2.9 1.7-1.2 4.3-1.2 4.1 0 6.2 2.3 2.1 2.4 2.1 7.5v9.4q0 0.8-0.5 1.3-0.5 0.5-1.3 0.5h-0.5q-0.8 0-1.3-0.5-0.5-0.5-0.5-1.3v-9.1q0-3.4-1.3-5-1.3-1.6-4.2-1.6-2.8 0-4.1 1.7-1.4 1.8-1.4 5.4v8.6q0 0.8-0.4 1.3-0.5 0.5-1.4 0.5z"/>
</svg>